<svg id="Capa_1" data-name="Capa 1" xmlns="http://www.w3.org/2000/svg" viewBox="0 0 571.32 324.72"><defs><style>.cls-1,.cls-2{fill:#293357;}.cls-1{fill-rule:evenodd;}.cls-3{fill:#00a3c7;}</style></defs><path class="cls-1" d="M330,88.93c37.07-5.73,66.47,14.64,77.45,32.54,7.31,11.95,9.05,20.69,10,28.12,14.92,116.43-157.19,116.24-148.92,5.7,1.66-22,9-32.92,15.52-41.29,9.34-12,25.46-21.91,45.94-25.07m-28.28,92.62c3.2,9.66,13,21.68,23.15,25.91,26.57,11.11,51.59-4.41,59.08-24.09,13.39-35.25-11.58-71.05-45-67.27-29.93,3.35-48,33-37.2,65.45"/><path class="cls-1" d="M569.52,236H538.41V90c9.87,0,31.18,0,31.18,16,0,12-.07,130-.07,130"/><path class="cls-1" d="M509.18,208.93H469.29L469.24,118h0V105.94c0-16-21.45-16-31.27-16V236h85c0-8.5,0-27-13.82-27"/><path class="cls-1" d="M249.65,119.05c-11.77-27.21-41.91-31.91-67.34-31.9h-.14c-9.87,0-32,3.07-32,3.07l0,145.74c9.87,0,32,0,32-16.05v-.28l0,0V196.37c53.34,7.93,86.43-33.53,67.48-77.32m-45.1,51.56A101.19,101.19,0,0,1,182,170.3v-54a191.28,191.28,0,0,1,22.09.18c12.45.8,21.16,12.89,21.16,27.65s-8.77,25.24-20.73,26.49"/><path class="cls-2" d="M108.3,16.58c-48.59,65.11-75.73,189.57-12.23,286,9.84,14.13,17.25,21.18,17.25,21.18C42.09,217.91,93.39,79.31,146.38,8.3L98.82,2.17S76.67-4,67.38,11.32Z"/><path class="cls-3" d="M109.13,323.79C26.33,234.51,35.67,93,85.56,26.11c0,0-37.24-4.43-44.49-5.19C32,20,13,15.88,8.74,37-32.93,243.26,109.13,323.79,109.13,323.79"/></svg>