<svg xmlns="http://www.w3.org/2000/svg" viewBox="0 0 35.06 35.06"><defs><style>.cls-1{fill:#005f98;fill-rule:evenodd;}</style></defs><g id="Capa_2" data-name="Capa 2"><g id="Capa_1-2" data-name="Capa 1"><path class="cls-1" d="M17.53,32.55a15,15,0,1,1,15-15,15,15,0,0,1-15,15M17.53,0A17.53,17.53,0,1,0,35.06,17.53,17.53,17.53,0,0,0,17.53,0"/><path class="cls-1" d="M26,6.22A14.18,14.18,0,0,0,6.28,9h0l5.86,3.54h0a8.92,8.92,0,0,1,5.5-4.44c5.22-1.25,4.92,3.84,2.28,4.21a4.35,4.35,0,0,1-3.78-1.44L14.4,12.44a9.83,9.83,0,0,0,9,3.6c5.52-.81,6-7.33,2.58-9.82Z"/><path class="cls-1" d="M17.33,31.67A14.18,14.18,0,0,1,5.71,9.76h0l6,3.61h0a18,18,0,0,0-1.07,10.08C11,26.34,13,27.72,14,27.12s1.21-2.52,1.09-5.88a38.44,38.44,0,0,0-.79-6.32h0l3.06,1.84V31.68Z"/><path class="cls-1" d="M28.75,9a14.2,14.2,0,0,1-5.05,21.3h0l-2.52-2.7h0V31.2h0a14,14,0,0,1-3,.48h0V17.4l2.45,1.48c1.14,7,3.13,7.55,3.13,7.55,3.43-4.21,1.75-10.19,1.8-10.21A5.56,5.56,0,0,0,28.75,9Z"/></g></g></svg>